<svg width="25" height="24" viewBox="0 0 25 24" fill="none" xmlns="http://www.w3.org/2000/svg">
<path opacity="0.2" d="M18.5 10.5C18.5 11.9834 18.0601 13.4334 17.236 14.6668C16.4119 15.9001 15.2406 16.8614 13.8701 17.4291C12.4997 17.9968 10.9917 18.1453 9.53683 17.8559C8.08197 17.5665 6.7456 16.8522 5.6967 15.8033C4.64781 14.7544 3.9335 13.418 3.64411 11.9632C3.35472 10.5083 3.50325 9.00032 4.07091 7.62987C4.63856 6.25943 5.59986 5.08809 6.83323 4.26398C8.0666 3.43987 9.51664 3 11 3C11.9849 3 12.9602 3.19399 13.8701 3.5709C14.7801 3.94781 15.6069 4.50026 16.3033 5.1967C16.9997 5.89314 17.5522 6.71993 17.9291 7.62987C18.306 8.53982 18.5 9.51509 18.5 10.5Z" fill="white"/>
<path d="M22.0306 20.4694L17.3375 15.7762C18.7004 14.1416 19.3807 12.0445 19.2368 9.92113C19.0928 7.79774 18.1358 5.81159 16.5648 4.37586C14.9937 2.94013 12.9296 2.16536 10.8019 2.21275C8.67416 2.26013 6.6466 3.12601 5.14103 4.63025C3.63546 6.13449 2.76779 8.16128 2.71853 10.289C2.66926 12.4167 3.4422 14.4814 4.87654 16.0537C6.31088 17.626 8.29619 18.5848 10.4194 18.7306C12.5427 18.8764 14.6404 18.198 16.2762 16.8366L20.9694 21.5306C21.0391 21.6003 21.1218 21.6556 21.2128 21.6933C21.3039 21.731 21.4015 21.7504 21.5 21.7504C21.5985 21.7504 21.6961 21.731 21.7872 21.6933C21.8782 21.6556 21.9609 21.6003 22.0306 21.5306C22.1003 21.4609 22.1556 21.3782 22.1933 21.2872C22.231 21.1961 22.2504 21.0985 22.2504 21C22.2504 20.9015 22.231 20.8039 22.1933 20.7128C22.1556 20.6218 22.1003 20.5391 22.0306 20.4694ZM4.25 10.5C4.25 9.16497 4.64588 7.85993 5.38758 6.7499C6.12928 5.63987 7.18348 4.7747 8.41688 4.26381C9.65029 3.75292 11.0075 3.61925 12.3169 3.8797C13.6262 4.14015 14.829 4.78302 15.773 5.72703C16.717 6.67103 17.3598 7.87377 17.6203 9.18314C17.8807 10.4925 17.7471 11.8497 17.2362 13.0831C16.7253 14.3165 15.8601 15.3707 14.7501 16.1124C13.6401 16.8541 12.335 17.25 11 17.25C9.2104 17.248 7.49466 16.5362 6.22922 15.2708C4.96378 14.0053 4.25198 12.2896 4.25 10.5Z" fill="white"/>
</svg>
