<svg width="36" height="36" viewBox="0 0 36 36" fill="none" xmlns="http://www.w3.org/2000/svg">
<g clip-path="url(#clip0_13_13)">
<path opacity="0.2" d="M18 4.5C15.2689 4.49984 12.6021 5.32798 10.3515 6.87508C8.10096 8.42219 6.37256 10.6155 5.39452 13.1654C4.41649 15.7153 4.23482 18.5019 4.87351 21.1572C5.5122 23.8125 6.9412 26.2116 8.97184 28.0378C9.81878 26.3713 11.1106 24.9718 12.7041 23.9943C14.2976 23.0169 16.1306 22.4997 18 22.5C16.8874 22.5 15.7999 22.1701 14.8749 21.552C13.9499 20.9339 13.2289 20.0554 12.8031 19.0276C12.3774 17.9998 12.266 16.8688 12.483 15.7776C12.7001 14.6865 13.2358 13.6842 14.0225 12.8975C14.8092 12.1109 15.8114 11.5751 16.9026 11.3581C17.9937 11.141 19.1247 11.2524 20.1526 11.6782C21.1804 12.1039 22.0589 12.8249 22.677 13.7499C23.2951 14.6749 23.625 15.7625 23.625 16.875C23.625 18.3668 23.0323 19.7976 21.9774 20.8525C20.9225 21.9074 19.4918 22.5 18 22.5C19.8692 22.4995 21.7021 23.0165 23.2956 23.9937C24.8891 24.9709 26.181 26.3701 27.0281 28.0364C29.0582 26.2101 30.4867 23.811 31.1251 21.156C31.7635 18.5009 31.5817 15.7147 30.6037 13.1651C29.6258 10.6156 27.8976 8.42249 25.6474 6.87545C23.3972 5.32842 20.7307 4.50015 18 4.5Z" fill="#194F90"/>
<path d="M8.97192 28.0364C9.81836 26.3692 11.1099 24.9689 12.7035 23.9908C14.297 23.0127 16.1303 22.4949 18 22.4949C19.8698 22.4949 21.7031 23.0127 23.2966 23.9908C24.8902 24.9689 26.1817 26.3692 27.0282 28.0364" stroke="#194F90" stroke-width="2" stroke-linecap="round" stroke-linejoin="round"/>
<path d="M18 31.5C25.4558 31.5 31.5 25.4558 31.5 18C31.5 10.5442 25.4558 4.5 18 4.5C10.5442 4.5 4.5 10.5442 4.5 18C4.5 25.4558 10.5442 31.5 18 31.5Z" stroke="#194F90" stroke-width="2" stroke-linecap="round" stroke-linejoin="round"/>
<path d="M18 22.5C21.1066 22.5 23.625 19.9816 23.625 16.875C23.625 13.7684 21.1066 11.25 18 11.25C14.8934 11.25 12.375 13.7684 12.375 16.875C12.375 19.9816 14.8934 22.5 18 22.5Z" stroke="#194F90" stroke-width="2" stroke-linecap="round" stroke-linejoin="round"/>
</g>
<defs>
<clipPath id="clip0_13_13">
<rect width="36" height="36" fill="white"/>
</clipPath>
</defs>
</svg>
